<svg id="Layer_1" xmlns="http://www.w3.org/2000/svg" viewBox="0 0 800 800" xml:space="preserve">
  <style type="text/css">
    .st0{fill:#FFFFFF;}
  </style>
  <path class="st0" d="M142.4,791H658c88.8,0,133-44.2,133-131.7V140.7C791,53.2,746.8,9,658,9H142.4C54,9,9,52.8,9,140.7v518.6
    C9,747.2,54,791,142.4,791z M143.7,722.6c-42.5,0-66.3-22.5-66.3-66.7V144.1c0-44.2,23.8-66.7,66.3-66.7h513.1
    c42.1,0,65.8,22.5,65.8,66.7v511.8c0,44.2-23.8,66.7-65.8,66.7L143.7,722.6L143.7,722.6z M399.8,600.7c22.5,0,36.1-15.7,36.1-40.4
    V435h133c23.8,0,40.4-12.7,40.4-35.3c0-22.9-15.7-36.1-40.4-36.1h-133V230.3c0-24.6-13.6-40.4-36.1-40.4s-35.3,16.6-35.3,40.4v133.4
    H232c-24.6,0-40.8,13.2-40.8,36.1c0,22.5,17,35.3,40.8,35.3h132.5v125.3C364.5,584.1,377.3,600.7,399.8,600.7z"/>
</svg>

