<svg id="Layer_1" xmlns="http://www.w3.org/2000/svg" viewBox="0 0 800 800" xml:space="preserve">
  <style type="text/css">
    .st0{fill:#FFFFFF;}
  </style>
  <path class="st0" d="M140.7,793.5h519c89.3,0,133.8-44.5,133.8-132.5V139C793.5,51,749,6.5,659.7,6.5h-519
    C51.8,6.5,6.5,50.5,6.5,139v522C6.5,749.5,51.8,793.5,140.7,793.5z M142,724.7c-42.7,0-66.7-22.7-66.7-67.1V142.4
    c0-44.5,23.9-67.1,66.7-67.1h516.4c42.3,0,66.3,22.7,66.3,67.1v515.1c0,44.5-23.9,67.1-66.3,67.1H142V724.7z M180.1,398.9
    c0,9.8,4.3,17.1,12.4,25.2L337,568.6c5.6,5.6,13.3,9,22.2,9c17.5,0,30.8-13.7,30.8-31.2c0-9.4-3.4-17.1-9.4-22.7l-53.4-52.6
    l-51.7-43.6l90.2,3.4h223.1c18.4,0,32.1-13.7,32.1-32.1c0-18.8-13.7-32.1-32.1-32.1H365.6l-90.2,3.4l51.7-43.2l53.4-53
    c5.6-6,9.4-13.7,9.4-23.1c0-17.1-13.3-30.8-30.8-30.8c-9,0-16.7,3-22.2,8.6L192.5,374.1C183.9,382.7,180.1,390,180.1,398.9z"/>
</svg>

