<svg id="Layer_1" xmlns="http://www.w3.org/2000/svg" viewBox="0 0 800 800" xml:space="preserve">
  <style type="text/css">
    .st0{fill:#FFFFFF;}
  </style>
  <path class="st0" d="M142.4,791H658c88.8,0,133-44.2,133-131.7V140.7C791,53.2,746.8,9,658,9H142.4C54,9,9,52.8,9,140.7v518.6
    C9,747.2,54,791,142.4,791z M143.7,722.6c-42.5,0-66.3-22.5-66.3-66.7V144.1c0-44.2,23.8-66.7,66.3-66.7h513.1
    c42.1,0,65.8,22.5,65.8,66.7v511.8c0,44.2-23.8,66.7-65.8,66.7L143.7,722.6L143.7,722.6z M255.4,579c9.3,0,17.8-3.8,24.2-10.6
    l120.6-120.6l120.6,120.6c6.4,6.4,14.9,10.6,24.6,10.6c18.7,0,34-15.3,34-34.4c0-9.8-3.8-17.4-10.2-24.2L448.6,399.8l121.1-121.5
    c6.8-7.2,10.2-14.4,10.2-23.8c0-18.7-15.3-34-34-34c-8.9,0-16.6,3.4-23.8,10.6L400.2,352.2L278.7,231.6c-6.4-6.8-14-10.2-23.4-10.2
    c-19.1,0-34,14.9-34,33.6c0,9.3,3.4,17.4,10.2,23.8l120.6,121.1L231.6,520.8c-6.8,6.4-10.2,14.4-10.2,23.8
    C221.4,563.7,236.3,579,255.4,579z"/>
</svg>

