<svg id="Layer_1" xmlns="http://www.w3.org/2000/svg" viewBox="0 0 800 800" xml:space="preserve">
  <style type="text/css">
    .st0{fill:#FFFFFF;stroke:#FFFFFF;stroke-width:24;stroke-miterlimit:10;}
  </style>
  <path class="st0" d="M400.2,547.1c7,0,13.2-2.4,20.2-9.4l117.8-113.6c5.2-5.2,8-10.8,8-18.5c0-14.3-10.8-24.4-25.4-24.4
    c-6.6,0-13.9,2.8-18.8,8.4l-52.6,56.1l-23.7,24.8l2.1-51.9V50.7c0-14.6-12.6-26.8-27.5-26.8c-15,0-27.9,12.2-27.9,26.8v367.8
    l2.4,51.9L351,445.7l-53-56.1c-4.9-5.6-12.2-8.4-19.2-8.4c-14.6,0-25.1,10.1-25.1,24.4c0,7.7,3.1,13.2,8.4,18.5L380,537.7
    C386.9,544.7,392.9,547.1,400.2,547.1z M200.1,776.1h399.8c73.2,0,109.5-36.3,109.5-108.1V308.3c0-71.8-36.3-108.1-109.5-108.1
    H499.5v56.1h99.7c34.2,0,54,18.8,54,55.1v353.8c0,36.3-19.9,54.7-54,54.7H201.1c-34.9,0-54.4-18.5-54.4-54.7V311.5
    c0-36.3,19.5-55.1,54.4-55.1h99.7v-56.1H200.1c-72.5,0-109.5,36.3-109.5,108.1v359.8C90.6,740.2,127.6,776.1,200.1,776.1z"/>
</svg>

