<svg id="Layer_1" xmlns="http://www.w3.org/2000/svg" viewBox="0 0 800 800" xml:space="preserve">
  <style type="text/css">
    .st0{fill:#FFFFFF;}
  </style>
  <path class="st0" d="M180.4,752.1H620c47.5,0,75.3-26.8,75.3-74V372.4l43.2,39.5c7,6.7,14.7,11.4,24.1,11.4
    c15.7,0,28.5-9.7,28.5-25.8c0-10-3.7-16.4-10-22.1L664.8,269.3V72c0-14.7-9.4-24.1-24.1-24.1h-43.9c-14.4,0-24.4,9.4-24.4,24.1
    v113.2L440.2,64.7C428.5,54,414.4,47.9,400,47.9c-14.4,0-28.5,6-40.2,16.7L19,375.4c-6,5.7-10,12.1-10,22.1
    c0,16.1,12.7,25.8,28.5,25.8c9.7,0,17.4-4.7,24.1-11.4l43.2-39.2v305.4C104.7,725.3,132.5,752.1,180.4,752.1z M496.4,475.8
    c0-15.4-10-25.1-25.4-25.1H329c-15.4,0-25.8,9.7-25.8,25.1v222.3H191.7c-21.4,0-33.1-11.7-33.1-33.5V323.5l229.7-209.3
    c3.3-3.3,7.4-5.4,11.7-5.4c4.4,0,8.4,1.7,12.1,5.4l229.3,209.3v341.2c0,21.8-11.7,33.5-32.8,33.5H496.4V475.8z"/>
</svg>

