<svg id="Layer_1" xmlns="http://www.w3.org/2000/svg" viewBox="0 0 800 800" xml:space="preserve">
  <style type="text/css">
    .st0{fill:#FFFFFF;}
  </style>
  <path class="st0" d="M427.8,778.1c55.3,0,139-41.5,139-151.3V285c0-18.7,3-22,19.8-25.4l178.2-39.2c13.1-3,21.7-13.4,21.7-26.5V53
    c0-20.9-16.8-34.7-37.4-30.3l-198,43c-25.8,5.6-39.6,19.1-39.6,41.5l2.2,415.5c0,17.2-7.8,28.4-23.2,31.4l-59.4,12.7
    c-76.2,15.7-111.7,54.9-111.7,112.1C319.5,737,364.7,778.1,427.8,778.1z M38.9,212.9h334c14.2,0,25.4-11.6,25.4-25.4
    c0-13.8-11.2-25-25.4-25h-334c-13.8,0-25.4,11.2-25.4,25C13.5,201.3,25.1,212.9,38.9,212.9z M38.9,345.9h334
    c14.6,0,25.4-11.6,25.4-25.8c0-13.8-11.2-24.7-25.4-24.7h-334c-13.8,0-25.4,10.8-25.4,24.7C13.5,334.3,24.7,345.9,38.9,345.9z
    M38.9,478.9h334c14.6,0,25.4-11.2,25.4-25.4c0-13.8-11.2-25-25.4-25h-334c-13.8,0-25.4,11.2-25.4,25
    C13.5,467.7,24.7,478.9,38.9,478.9z"/>
</svg>

