<?xml version="1.0" encoding="utf-8"?>
<!-- Generator: Adobe Illustrator 21.1.0, SVG Export Plug-In . SVG Version: 6.00 Build 0)  -->
<svg version="1.1" id="Layer_1" xmlns="http://www.w3.org/2000/svg" xmlns:xlink="http://www.w3.org/1999/xlink" x="0px" y="0px"
	 viewBox="0 0 800 800" style="enable-background:new 0 0 800 800;" xml:space="preserve">
<style type="text/css">
	.st0{fill:#FFFFFF;}
</style>
<g>
	<path class="st0" d="M588.1,384.7L137.4,117.4c-4.7-2.8-8.1-4.3-11.4-4.3c-7.1,0-12.8,4.7-12.8,14.2v541.3
		c0,9.5,5.7,14.2,12.8,14.2c3.3,0.2,7.1-1.3,11.3-4.2l450.8-267.3c6.6-3.8,10.4-7.1,10.4-13.3C598.5,391.4,594.7,388.5,588.1,384.7z
		"/>
	<path class="st0" d="M688.2,46.4v333.2c-5.2-19.4-19.4-36.9-45.5-52.1l-483-284.4c-19.4-11.3-35.1-17.5-54.5-17.5
		c-37,0-68.3,28.4-68.3,81.5v582c0,53,31.2,81.4,68.1,81.4c19.4,0,35.5-6.1,54.5-17.5l483-284.4c26.1-15.1,40.3-32.7,45.5-52.1
		v333.6c0,22.2,18.5,39.3,40.8,39.3s40.3-17,40.3-39.3V46.4c0-22.3-17.8-39.8-40.1-39.8S688.2,24.1,688.2,46.4z M588.1,411.3
		L137.3,678.6c-4.2,2.9-8,4.4-11.3,4.2c-7.1,0-12.8-4.7-12.8-14.2V127.3c0-9.5,5.7-14.2,12.8-14.2c3.3,0,6.7,1.5,11.4,4.3
		l450.7,267.3c6.6,3.8,10.4,6.7,10.4,13.3C598.5,404.2,594.7,407.5,588.1,411.3z"/>
</g>
</svg>
