<?xml version="1.0" encoding="utf-8"?>
<!-- Generator: Adobe Illustrator 21.1.0, SVG Export Plug-In . SVG Version: 6.00 Build 0)  -->
<svg version="1.1" id="Layer_1" xmlns="http://www.w3.org/2000/svg" xmlns:xlink="http://www.w3.org/1999/xlink" x="0px" y="0px"
	 viewBox="0 0 800 800" style="enable-background:new 0 0 800 800;" xml:space="preserve">
<style type="text/css">
	.st0{fill:#FFFFFF;}
</style>
<g>
	<path class="st0" d="M691.8,394.6L115.1,83c-2.2-1.5-4.2-2.5-6.3-2.5c-3.2,0-5.3,2-5.3,5.9v627.2c0,4,2.2,5.9,5.3,5.9
		c2.2,0,4.2-1,6.3-1.9l576.8-312.3c2.6-1,4.7-2.9,4.7-5.3C696.5,397.5,694.4,396.1,691.8,394.6z"/>
	<path class="st0" d="M709,339.1L149.5,31.6C130.3,21.1,114,14.3,94.9,14.3c-35.5,0-57.6,25.5-57.6,65.2v640.6
		c0,39.6,22.1,65.6,57.6,65.6c19.2,0,35.5-7.3,54.7-17.8L709,460.8c39.8-22.3,53.7-36.9,53.7-61.1S748.8,361,709,339.1z
		 M656.3,404.7L125.1,696.9c-1.9,0.9-3.8,1.8-5.8,1.8c-2.8,0-4.8-1.8-4.8-5.5V106.3c0-3.6,1.9-5.5,4.8-5.5c1.9,0,3.8,0.9,5.8,2.3
		l531.2,291.6c2.4,1.4,4.3,2.7,4.3,5S658.7,403.8,656.3,404.7z"/>
</g>
</svg>
