<?xml version="1.0" encoding="utf-8"?>
<!-- Generator: Adobe Illustrator 21.1.0, SVG Export Plug-In . SVG Version: 6.00 Build 0)  -->
<svg version="1.1" id="Layer_1" xmlns="http://www.w3.org/2000/svg" xmlns:xlink="http://www.w3.org/1999/xlink" x="0px" y="0px"
	 viewBox="0 0 800 800" style="enable-background:new 0 0 800 800;" xml:space="preserve">
<style type="text/css">
	.st0{fill:#FFFFFF;}
</style>
<g>
	<path class="st0" d="M214.9,413.4l450.8,267.3c4.2,2.8,8,4.3,11.3,4.2c7.1,0,12.8-4.7,12.8-14.2V129.4c0-9.5-5.7-14.2-12.8-14.2
		c-3.3,0-6.7,1.5-11.4,4.3L214.9,386.8c-6.6,3.8-10.4,6.7-10.4,13.3C204.5,406.3,208.3,409.6,214.9,413.4z"/>
	<path class="st0" d="M115,752.2V418.6c5.2,19.4,19.4,37,45.5,52.1l483,284.4c19,11.4,35.1,17.5,54.5,17.5
		c36.9,0,68.1-28.4,68.1-81.5v-582c0-53.1-31.3-81.5-68.3-81.5c-19.4,0-35.1,6.2-54.5,17.5l-483,284.4
		c-26.1,15.2-40.3,32.7-45.5,52.1V48.4c0-22.3-18.5-39.8-40.8-39.8S33.9,26.1,33.9,48.4v703.8c0,22.3,18,39.3,40.3,39.3
		S115,774.4,115,752.2z M214.9,386.8l450.7-267.3c4.7-2.8,8.1-4.3,11.4-4.3c7.1,0,12.8,4.7,12.8,14.2v541.3
		c0,9.5-5.7,14.2-12.8,14.2c-3.3,0.1-7.1-1.4-11.3-4.2L214.9,413.4c-6.6-3.8-10.4-7.1-10.4-13.3
		C204.5,393.5,208.3,390.6,214.9,386.8z"/>
</g>
</svg>
