<svg id="Layer_1" xmlns="http://www.w3.org/2000/svg" viewBox="0 0 800 800" xml:space="preserve">
  <style type="text/css">
    .st0{fill:#FFFFFF;}
  </style>
  <path class="st0" d="M518.4,58.5L732,272.1c68.2-67.9,71-153.9,5.4-219.1C672.3-11.3,586.2-9.8,518.4,58.5z M479.6,97.6
    c-41.1,40.3-58.2,86.5-52.3,131.1L67.1,616.8c-14.7,15.9-17.1,38,1.2,56.2l-49.6,64c-5,6.2-5,15.1,1.9,22.1l11.2,11.6
    c6.6,6.6,15.5,7,22.5,1.6l64-50c17.4,18.2,39.9,15.9,55.4,1.2l200.8-186.1v221.4c0,19.8,15.9,35.3,35.7,35.3
    c19.8,0,35.3-15.5,35.3-35.3V529.6l-2.7-55.4L561,364.4c44.6,5.8,91.5-12.4,131.8-53.1L479.6,97.6z M106.6,648.6l342-362.1
    c6.6,10.9,14.7,21.3,24.4,31.4c9.7,9.7,19.8,18.2,30.2,25.2L142.7,684.3L106.6,648.6z"/>
</svg>

