<?xml version="1.0" encoding="utf-8"?>
<!-- Generator: Adobe Illustrator 21.1.0, SVG Export Plug-In . SVG Version: 6.00 Build 0)  -->
<svg version="1.1" id="Layer_1" xmlns="http://www.w3.org/2000/svg" xmlns:xlink="http://www.w3.org/1999/xlink" x="0px" y="0px"
	 viewBox="0 0 800 800" style="enable-background:new 0 0 800 800;" xml:space="preserve">
<style type="text/css">
	.st0{fill:#FFFFFF;}
	.st1{enable-background:new    ;}
</style>
<title>ic_fluent_arrow_counterclockwise_24_filled</title>
<desc>Created with Sketch.</desc>
<g id="_xD83D__xDD0D_-System-Icons">
	<g id="ic_fluent_arrow_counterclockwise_24_filled">
		<path id="_xD83C__xDFA8_-Color" class="st0" d="M92.5,51.6v148.9c0,23.3,18.9,42.1,42.1,42.1h148.9c23.3,0,42.1-18.9,42.1-42.1
			s-18.9-42.1-42.1-42.1h-34.6c113.2-67.7,262.1-52.8,359.6,44.7c115.1,115.1,115.1,301.8,0,416.9s-301.8,115.1-416.9,0
			c-70.1-70.1-99.4-169-81-264.5c4.4-22.8-10.5-44.9-33.4-49.3s-44.9,10.5-49.3,33.4C4.2,462.2,42,589.5,132,679.5
			c148,148,388,148,536,0s148-388,0-536C534.1,9.6,324.9-3.2,176.7,105.2V51.6c0-23.3-18.9-42.1-42.1-42.1S92.5,28.4,92.5,51.6z"/>
	</g>
</g>
<g class="st1">
	<path class="st0" d="M269.8,581.9V373.3c-38.8,29.8-64.9,44.7-78.4,44.7c-6.4,0-12.1-2.6-17.1-7.7c-5-5.1-7.4-11-7.4-17.8
		c0-7.8,2.4-13.5,7.3-17.2c4.9-3.7,13.5-8.4,25.9-14.2c18.5-8.7,33.3-17.9,44.3-27.5c11.1-9.6,20.9-20.4,29.4-32.3
		c8.6-11.9,14.1-19.3,16.7-22c2.6-2.8,7.5-4.1,14.7-4.1c8.1,0,14.6,3.1,19.5,9.4c4.9,6.3,7.3,14.9,7.3,25.9v262.4
		c0,30.7-10.5,46.1-31.4,46.1c-9.3,0-16.8-3.1-22.5-9.4C272.6,603.3,269.8,594.1,269.8,581.9z"/>
	<path class="st0" d="M605.3,448.5c0,25.1-1.5,46.6-4.6,64.6c-3.1,18-8.7,34.4-17,49c-10.4,18-23.8,31.9-40.3,41.7
		c-16.5,9.8-34.8,14.7-55,14.7c-23.2,0-44-6.6-62.5-19.7c-18.4-13.1-32.3-31.3-41.6-54.5c-4.7-12.7-8.2-26.7-10.4-42.1
		c-2.2-15.4-3.3-32-3.3-49.8c0-23.1,1.2-43.8,3.7-62.3c2.4-18.5,6.3-34.4,11.5-47.7c9-22,22.1-38.8,39.3-50.3
		c17.2-11.5,37.7-17.3,61.5-17.3c15.7,0,30,2.6,42.9,7.7c12.8,5.1,24.1,12.6,33.8,22.5c9.7,9.9,17.9,22,24.6,36.6
		C599.5,366.7,605.3,402.3,605.3,448.5z M542.5,443.9c0-28-1.7-50.8-5-68.6c-3.4-17.8-9-31.2-17-40.3c-7.9-9.1-18.9-13.6-33-13.6
		c-20.2,0-34.2,10.2-42.1,30.5c-7.9,20.3-11.8,51.6-11.8,94c0,28.7,1.7,52.3,5,70.6c3.4,18.3,9,32.2,17,41.6
		c7.9,9.4,18.7,14.1,32.3,14.1c14.1,0,25.1-4.9,33-14.7c7.9-9.8,13.5-23.8,16.7-41.9C540.9,497.2,542.5,473.4,542.5,443.9z"/>
</g>
</svg>
