<svg id="Layer_1" xmlns="http://www.w3.org/2000/svg" viewBox="0 0 800 800" xml:space="preserve">
  <style type="text/css">
    .st0{fill:#FFFFFF;}
  </style>
  <path class="st0" d="M4.7,571.6c0,21.4,15.7,36.2,39.5,36.2h76.3c57.6,0,92.4-16.7,133.9-65.3l75.3-87.7l75,87.7
    c41.5,48.5,76,65.6,134.6,65.6h61.3v74.3c0,18.1,11.4,29.5,30.1,29.5c8,0,16.4-3,22.4-8.4l126.6-104.5c15.4-12.4,15.1-32.5,0-44.9
    L653.3,449.1c-6-5.4-14.4-8.4-22.4-8.4c-18.8,0-30.1,11.4-30.1,29.5v65h-59.6c-34.5,0-55.9-11-83.4-42.9l-80-93.4l80-93.1
    c27.5-32.1,48.9-43.2,83.4-43.2h59.6v67.3c0,18.1,11.4,29.5,30.1,29.5c8,0,16.4-3,22.4-8.4l126.6-104.5c15.4-12.4,15.1-32.1,0-44.9
    L653.3,96.5c-6-5.4-14.4-8.4-22.4-8.4c-18.8,0-30.1,11.4-30.1,29.5v72.3h-61.3c-58.6,0-93.1,17.1-134.6,65.6l-75,87.7l-75.3-87.7
    c-41.5-48.5-76.3-65.6-133.9-65.6H44.3c-23.8,0-39.5,14.7-39.5,36.5c0,21.4,16.1,36.5,39.5,36.5h77.7c32.5,0,52.9,11,80,42.9
    l80,93.1l-80,93.4c-27.5,31.8-47.9,42.9-80,42.9H44.3C20.8,535.1,4.7,550.2,4.7,571.6z"/>
</svg>

